<svg width="57" height="25" viewBox="0 0 57 25" fill="none" xmlns="http://www.w3.org/2000/svg">
<rect x="0.668945" y="0.5" width="55" height="24" rx="4.5" stroke="#FFD600"/>
<path d="M7.65495 15.998V13.408H5.07895V12.582H7.65495V9.992H8.49495V12.582H11.0849V13.408H8.49495V15.998H7.65495ZM15.9093 18.14C15.1439 18.14 14.5186 17.9253 14.0333 17.496C13.5479 17.0667 13.1886 16.4647 12.9553 15.69C12.7313 14.9153 12.6193 14.01 12.6193 12.974C12.6193 11.938 12.7313 11.0373 12.9553 10.272C13.1886 9.50667 13.5479 8.914 14.0333 8.494C14.5186 8.074 15.1486 7.864 15.9233 7.864C16.6513 7.864 17.2579 8.074 17.7433 8.494C18.2286 8.914 18.5879 9.51133 18.8213 10.286C19.0639 11.0513 19.1853 11.952 19.1853 12.988C19.1853 14.024 19.0639 14.9293 18.8213 15.704C18.5786 16.4693 18.2146 17.0667 17.7293 17.496C17.2533 17.9253 16.6466 18.14 15.9093 18.14ZM15.9093 17.384C16.2453 17.384 16.5299 17.286 16.7633 17.09C16.9966 16.894 17.1833 16.6093 17.3233 16.236C17.4633 15.8533 17.5659 15.3913 17.6313 14.85C17.6966 14.2993 17.7293 13.6787 17.7293 12.988C17.7293 12.2973 17.6966 11.6813 17.6313 11.14C17.5753 10.5987 17.4726 10.1413 17.3233 9.768C17.1833 9.39467 16.9966 9.11 16.7633 8.914C16.5393 8.718 16.2593 8.62 15.9233 8.62C15.5779 8.62 15.2886 8.718 15.0553 8.914C14.8219 9.11 14.6306 9.39467 14.4813 9.768C14.3413 10.1413 14.2386 10.5987 14.1733 11.14C14.1079 11.6813 14.0753 12.2973 14.0753 12.988C14.0753 13.6787 14.1079 14.2993 14.1733 14.85C14.2386 15.3913 14.3413 15.8533 14.4813 16.236C14.6213 16.6093 14.8079 16.894 15.0413 17.09C15.2839 17.286 15.5733 17.384 15.9093 17.384ZM21.5596 18.098C21.3169 18.098 21.1069 18.028 20.9296 17.888C20.7616 17.748 20.6776 17.5007 20.6776 17.146C20.6776 16.782 20.7616 16.5347 20.9296 16.404C21.1069 16.264 21.3169 16.194 21.5596 16.194C21.8022 16.194 22.0076 16.264 22.1756 16.404C22.3529 16.5347 22.4416 16.782 22.4416 17.146C22.4416 17.5007 22.3529 17.748 22.1756 17.888C22.0076 18.028 21.8022 18.098 21.5596 18.098ZM24.6536 18V17.412H25.5916C25.8062 17.412 25.9976 17.3887 26.1656 17.342C26.3429 17.2953 26.4829 17.202 26.5856 17.062C26.6882 16.9127 26.7396 16.6933 26.7396 16.404V9.054C26.5062 9.34333 26.2869 9.6 26.0816 9.824C25.8762 10.0387 25.6802 10.2067 25.4936 10.328C25.3069 10.4493 25.1202 10.51 24.9336 10.51C24.7282 10.51 24.5602 10.44 24.4296 10.3C24.2989 10.16 24.2336 9.978 24.2336 9.754C24.4202 9.70733 24.6116 9.64667 24.8076 9.572C25.0036 9.488 25.2182 9.376 25.4516 9.236C25.6942 9.08667 25.9696 8.9 26.2776 8.676L27.2576 7.948H28.1536V16.404C28.1536 16.6933 28.2049 16.9127 28.3076 17.062C28.4102 17.202 28.5502 17.2953 28.7276 17.342C28.9049 17.3887 29.0962 17.412 29.3016 17.412H29.9876V18H24.6536ZM34.5879 18.14C33.9719 18.14 33.4679 18.07 33.0759 17.93C32.6839 17.7807 32.3945 17.5893 32.2079 17.356C32.0305 17.1133 31.9419 16.8567 31.9419 16.586C31.9419 16.306 32.0212 16.0867 32.1799 15.928C32.3479 15.7693 32.5625 15.69 32.8239 15.69C32.8239 16.0167 32.8939 16.3107 33.0339 16.572C33.1739 16.824 33.3745 17.0247 33.6359 17.174C33.9065 17.314 34.2285 17.384 34.6019 17.384C34.9752 17.384 35.3159 17.314 35.6239 17.174C35.9412 17.0247 36.1979 16.7867 36.3939 16.46C36.5899 16.1333 36.6879 15.69 36.6879 15.13C36.6879 14.738 36.5852 14.3973 36.3799 14.108C36.1745 13.8093 35.8805 13.5807 35.4979 13.422C35.1245 13.2633 34.6765 13.184 34.1539 13.184H33.7059V12.47H34.1539C34.5645 12.47 34.9332 12.3813 35.2599 12.204C35.5959 12.0267 35.8619 11.7747 36.0579 11.448C36.2539 11.1213 36.3519 10.7387 36.3519 10.3C36.3519 9.74933 36.2352 9.32467 36.0019 9.026C35.7779 8.718 35.3952 8.564 34.8539 8.564C34.4339 8.564 34.1119 8.662 33.8879 8.858C33.6639 9.054 33.5099 9.31067 33.4259 9.628C33.3512 9.936 33.3139 10.2767 33.3139 10.65C32.9779 10.65 32.6932 10.5893 32.4599 10.468C32.2265 10.3373 32.1099 10.0947 32.1099 9.74C32.1099 9.376 32.2125 9.054 32.4179 8.774C32.6232 8.494 32.9312 8.27467 33.3419 8.116C33.7525 7.948 34.2565 7.864 34.8539 7.864C35.7405 7.864 36.4499 8.06 36.9819 8.452C37.5232 8.83467 37.7939 9.38067 37.7939 10.09C37.7939 10.51 37.6959 10.8973 37.4999 11.252C37.3039 11.5973 37.0379 11.896 36.7019 12.148C36.3659 12.3907 35.9832 12.5633 35.5539 12.666C35.8152 12.694 36.0952 12.7547 36.3939 12.848C36.6925 12.932 36.9725 13.0673 37.2339 13.254C37.5045 13.4407 37.7239 13.688 37.8919 13.996C38.0599 14.2947 38.1439 14.6773 38.1439 15.144C38.1439 15.704 38.0365 16.18 37.8219 16.572C37.6072 16.9547 37.3225 17.2627 36.9679 17.496C36.6132 17.72 36.2259 17.8833 35.8059 17.986C35.3952 18.0887 34.9892 18.14 34.5879 18.14ZM42.2402 18L47.2382 8.004H48.1482L43.1642 18H42.2402ZM41.8762 14.08C41.0735 14.08 40.4902 13.7953 40.1262 13.226C39.7622 12.6473 39.5802 11.8913 39.5802 10.958C39.5802 10.0153 39.7622 9.264 40.1262 8.704C40.4902 8.144 41.0782 7.864 41.8902 7.864C42.6555 7.864 43.2249 8.144 43.5982 8.704C43.9809 9.264 44.1722 10.0153 44.1722 10.958C44.1722 11.5833 44.0882 12.1293 43.9202 12.596C43.7522 13.0627 43.4955 13.4267 43.1502 13.688C42.8142 13.9493 42.3895 14.08 41.8762 14.08ZM41.8762 13.506C42.1375 13.506 42.3382 13.408 42.4782 13.212C42.6275 13.0067 42.7349 12.7127 42.8002 12.33C42.8655 11.9473 42.8982 11.49 42.8982 10.958C42.8982 10.426 42.8655 9.97333 42.8002 9.6C42.7349 9.22667 42.6275 8.942 42.4782 8.746C42.3382 8.55 42.1422 8.452 41.8902 8.452C41.6382 8.452 41.4329 8.55 41.2742 8.746C41.1249 8.942 41.0129 9.22667 40.9382 9.6C40.8729 9.97333 40.8402 10.426 40.8402 10.958C40.8402 11.49 40.8729 11.9473 40.9382 12.33C41.0129 12.7127 41.1249 13.0067 41.2742 13.212C41.4235 13.408 41.6242 13.506 41.8762 13.506ZM48.5682 18.14C47.7655 18.14 47.1822 17.8553 46.8182 17.286C46.4542 16.7073 46.2722 15.9513 46.2722 15.018C46.2722 14.0753 46.4542 13.324 46.8182 12.764C47.1822 12.204 47.7702 11.924 48.5822 11.924C49.3475 11.924 49.9169 12.204 50.2902 12.764C50.6729 13.324 50.8642 14.0753 50.8642 15.018C50.8642 15.6433 50.7802 16.1893 50.6122 16.656C50.4442 17.1227 50.1875 17.4867 49.8422 17.748C49.5062 18.0093 49.0815 18.14 48.5682 18.14ZM48.5682 17.566C48.8295 17.566 49.0302 17.468 49.1702 17.272C49.3195 17.0667 49.4269 16.7727 49.4922 16.39C49.5575 16.0073 49.5902 15.55 49.5902 15.018C49.5902 14.486 49.5575 14.0333 49.4922 13.66C49.4269 13.2867 49.3195 13.002 49.1702 12.806C49.0302 12.61 48.8342 12.512 48.5822 12.512C48.3302 12.512 48.1249 12.61 47.9662 12.806C47.8169 13.002 47.7049 13.2867 47.6302 13.66C47.5649 14.0333 47.5322 14.486 47.5322 15.018C47.5322 15.55 47.5649 16.0073 47.6302 16.39C47.7049 16.7727 47.8169 17.0667 47.9662 17.272C48.1155 17.468 48.3162 17.566 48.5682 17.566Z" fill="#FFD600"/>
</svg>
