<svg width="53" height="25" viewBox="0 0 53 25" fill="none" xmlns="http://www.w3.org/2000/svg">
<rect x="0.845703" y="0.5" width="51" height="24" rx="4.5" stroke="#FF1300"/>
<path d="M4.6957 14.71V13.66H8.3357V14.71H4.6957ZM12.5997 18.14C11.8344 18.14 11.209 17.9253 10.7237 17.496C10.2384 17.0667 9.87902 16.4647 9.64569 15.69C9.42169 14.9153 9.30969 14.01 9.30969 12.974C9.30969 11.938 9.42169 11.0373 9.64569 10.272C9.87902 9.50667 10.2384 8.914 10.7237 8.494C11.209 8.074 11.839 7.864 12.6137 7.864C13.3417 7.864 13.9484 8.074 14.4337 8.494C14.919 8.914 15.2784 9.51133 15.5117 10.286C15.7544 11.0513 15.8757 11.952 15.8757 12.988C15.8757 14.024 15.7544 14.9293 15.5117 15.704C15.269 16.4693 14.905 17.0667 14.4197 17.496C13.9437 17.9253 13.337 18.14 12.5997 18.14ZM12.5997 17.384C12.9357 17.384 13.2204 17.286 13.4537 17.09C13.687 16.894 13.8737 16.6093 14.0137 16.236C14.1537 15.8533 14.2564 15.3913 14.3217 14.85C14.387 14.2993 14.4197 13.6787 14.4197 12.988C14.4197 12.2973 14.387 11.6813 14.3217 11.14C14.2657 10.5987 14.163 10.1413 14.0137 9.768C13.8737 9.39467 13.687 9.11 13.4537 8.914C13.2297 8.718 12.9497 8.62 12.6137 8.62C12.2684 8.62 11.979 8.718 11.7457 8.914C11.5124 9.11 11.321 9.39467 11.1717 9.768C11.0317 10.1413 10.929 10.5987 10.8637 11.14C10.7984 11.6813 10.7657 12.2973 10.7657 12.988C10.7657 13.6787 10.7984 14.2993 10.8637 14.85C10.929 15.3913 11.0317 15.8533 11.1717 16.236C11.3117 16.6093 11.4984 16.894 11.7317 17.09C11.9744 17.286 12.2637 17.384 12.5997 17.384ZM18.25 18.098C18.0073 18.098 17.7973 18.028 17.62 17.888C17.452 17.748 17.368 17.5007 17.368 17.146C17.368 16.782 17.452 16.5347 17.62 16.404C17.7973 16.264 18.0073 16.194 18.25 16.194C18.4927 16.194 18.698 16.264 18.866 16.404C19.0433 16.5347 19.132 16.782 19.132 17.146C19.132 17.5007 19.0433 17.748 18.866 17.888C18.698 18.028 18.4927 18.098 18.25 18.098ZM20.854 18V16.978L23.192 14.276C23.5653 13.8467 23.878 13.4593 24.13 13.114C24.382 12.7687 24.5827 12.4467 24.732 12.148C24.8907 11.8493 25.0027 11.5553 25.068 11.266C25.1427 10.9673 25.18 10.6593 25.18 10.342C25.18 9.98733 25.1287 9.67933 25.026 9.418C24.9233 9.14733 24.7647 8.93733 24.55 8.788C24.3447 8.63867 24.0787 8.564 23.752 8.564C23.332 8.564 23.01 8.662 22.786 8.858C22.562 9.054 22.408 9.31067 22.324 9.628C22.2493 9.936 22.212 10.2767 22.212 10.65C21.988 10.65 21.7827 10.6267 21.596 10.58C21.4187 10.524 21.274 10.4307 21.162 10.3C21.0593 10.16 21.008 9.97333 21.008 9.74C21.008 9.376 21.1107 9.054 21.316 8.774C21.5213 8.494 21.8293 8.27467 22.24 8.116C22.6507 7.948 23.1547 7.864 23.752 7.864C24.34 7.864 24.844 7.962 25.264 8.158C25.6933 8.34467 26.02 8.61533 26.244 8.97C26.4773 9.31533 26.594 9.726 26.594 10.202C26.594 10.4633 26.5567 10.72 26.482 10.972C26.4167 11.224 26.3187 11.476 26.188 11.728C26.0573 11.98 25.8987 12.2413 25.712 12.512C25.5253 12.7733 25.3107 13.0487 25.068 13.338C24.8253 13.6273 24.5547 13.9353 24.256 14.262L21.89 16.88H25.124C25.544 16.88 25.8287 16.7727 25.978 16.558C26.1273 16.3433 26.2347 16.1007 26.3 15.83L26.356 15.578H26.944L26.874 18H20.854ZM30.8303 18V17.412H31.2223C31.437 17.412 31.6283 17.3887 31.7963 17.342C31.9736 17.2953 32.1136 17.202 32.2163 17.062C32.319 16.9127 32.3703 16.6933 32.3703 16.404V15.256H28.0583V14.682L32.3843 8.004H33.7143V14.472H35.4503V15.256H33.7143V16.404C33.7143 16.6933 33.7656 16.9127 33.8683 17.062C33.971 17.202 34.111 17.2953 34.2883 17.342C34.4656 17.3887 34.657 17.412 34.8623 17.412H35.0443V18H30.8303ZM29.0663 14.472H32.3703V11.882C32.3703 11.6767 32.3703 11.4527 32.3703 11.21C32.3796 10.9673 32.3843 10.7153 32.3843 10.454C32.3936 10.1927 32.403 9.936 32.4123 9.684C32.431 9.432 32.4496 9.19867 32.4683 8.984C32.4216 9.07733 32.347 9.21733 32.2443 9.404C32.1416 9.59067 32.025 9.796 31.8943 10.02C31.7636 10.2347 31.6376 10.4447 31.5163 10.65C31.395 10.846 31.2923 11.0093 31.2083 11.14L29.0663 14.472ZM38.9306 18L43.9286 8.004H44.8386L39.8546 18H38.9306ZM38.5666 14.08C37.764 14.08 37.1806 13.7953 36.8166 13.226C36.4526 12.6473 36.2706 11.8913 36.2706 10.958C36.2706 10.0153 36.4526 9.264 36.8166 8.704C37.1806 8.144 37.7686 7.864 38.5806 7.864C39.346 7.864 39.9153 8.144 40.2886 8.704C40.6713 9.264 40.8626 10.0153 40.8626 10.958C40.8626 11.5833 40.7786 12.1293 40.6106 12.596C40.4426 13.0627 40.186 13.4267 39.8406 13.688C39.5046 13.9493 39.08 14.08 38.5666 14.08ZM38.5666 13.506C38.828 13.506 39.0286 13.408 39.1686 13.212C39.318 13.0067 39.4253 12.7127 39.4906 12.33C39.556 11.9473 39.5886 11.49 39.5886 10.958C39.5886 10.426 39.556 9.97333 39.4906 9.6C39.4253 9.22667 39.318 8.942 39.1686 8.746C39.0286 8.55 38.8326 8.452 38.5806 8.452C38.3286 8.452 38.1233 8.55 37.9646 8.746C37.8153 8.942 37.7033 9.22667 37.6286 9.6C37.5633 9.97333 37.5306 10.426 37.5306 10.958C37.5306 11.49 37.5633 11.9473 37.6286 12.33C37.7033 12.7127 37.8153 13.0067 37.9646 13.212C38.114 13.408 38.3146 13.506 38.5666 13.506ZM45.2586 18.14C44.456 18.14 43.8726 17.8553 43.5086 17.286C43.1446 16.7073 42.9626 15.9513 42.9626 15.018C42.9626 14.0753 43.1446 13.324 43.5086 12.764C43.8726 12.204 44.4606 11.924 45.2726 11.924C46.038 11.924 46.6073 12.204 46.9806 12.764C47.3633 13.324 47.5546 14.0753 47.5546 15.018C47.5546 15.6433 47.4706 16.1893 47.3026 16.656C47.1346 17.1227 46.878 17.4867 46.5326 17.748C46.1966 18.0093 45.772 18.14 45.2586 18.14ZM45.2586 17.566C45.52 17.566 45.7206 17.468 45.8606 17.272C46.01 17.0667 46.1173 16.7727 46.1826 16.39C46.248 16.0073 46.2806 15.55 46.2806 15.018C46.2806 14.486 46.248 14.0333 46.1826 13.66C46.1173 13.2867 46.01 13.002 45.8606 12.806C45.7206 12.61 45.5246 12.512 45.2726 12.512C45.0206 12.512 44.8153 12.61 44.6566 12.806C44.5073 13.002 44.3953 13.2867 44.3206 13.66C44.2553 14.0333 44.2226 14.486 44.2226 15.018C44.2226 15.55 44.2553 16.0073 44.3206 16.39C44.3953 16.7727 44.5073 17.0667 44.6566 17.272C44.806 17.468 45.0066 17.566 45.2586 17.566Z" fill="#FF1300"/>
</svg>
