<svg width="35" height="25" viewBox="0 0 35 25" fill="none" xmlns="http://www.w3.org/2000/svg">
<rect x="0.650391" y="0.5" width="55.0493" height="24" rx="4.5" stroke="#FFD600"/>
<path d="M7.6608 15.998V13.408H5.0848V12.582H7.6608V9.992H8.5008V12.582H11.0908V13.408H8.5008V15.998H7.6608ZM15.9151 18.14C15.1498 18.14 14.5245 17.9253 14.0391 17.496C13.5538 17.0667 13.1945 16.4647 12.9611 15.69C12.7371 14.9153 12.6251 14.01 12.6251 12.974C12.6251 11.938 12.7371 11.0373 12.9611 10.272C13.1945 9.50667 13.5538 8.914 14.0391 8.494C14.5245 8.074 15.1545 7.864 15.9291 7.864C16.6571 7.864 17.2638 8.074 17.7491 8.494C18.2345 8.914 18.5938 9.51133 18.8271 10.286C19.0698 11.0513 19.1911 11.952 19.1911 12.988C19.1911 14.024 19.0698 14.9293 18.8271 15.704C18.5845 16.4693 18.2205 17.0667 17.7351 17.496C17.2591 17.9253 16.6525 18.14 15.9151 18.14ZM15.9151 17.384C16.2511 17.384 16.5358 17.286 16.7691 17.09C17.0025 16.894 17.1891 16.6093 17.3291 16.236C17.4691 15.8533 17.5718 15.3913 17.6371 14.85C17.7025 14.2993 17.7351 13.6787 17.7351 12.988C17.7351 12.2973 17.7025 11.6813 17.6371 11.14C17.5811 10.5987 17.4785 10.1413 17.3291 9.768C17.1891 9.39467 17.0025 9.11 16.7691 8.914C16.5451 8.718 16.2651 8.62 15.9291 8.62C15.5838 8.62 15.2945 8.718 15.0611 8.914C14.8278 9.11 14.6365 9.39467 14.4871 9.768C14.3471 10.1413 14.2445 10.5987 14.1791 11.14C14.1138 11.6813 14.0811 12.2973 14.0811 12.988C14.0811 13.6787 14.1138 14.2993 14.1791 14.85C14.2445 15.3913 14.3471 15.8533 14.4871 16.236C14.6271 16.6093 14.8138 16.894 15.0471 17.09C15.2898 17.286 15.5791 17.384 15.9151 17.384ZM21.5654 18.098C21.3228 18.098 21.1128 18.028 20.9354 17.888C20.7674 17.748 20.6834 17.5007 20.6834 17.146C20.6834 16.782 20.7674 16.5347 20.9354 16.404C21.1128 16.264 21.3228 16.194 21.5654 16.194C21.8081 16.194 22.0134 16.264 22.1814 16.404C22.3588 16.5347 22.4474 16.782 22.4474 17.146C22.4474 17.5007 22.3588 17.748 22.1814 17.888C22.0134 18.028 21.8081 18.098 21.5654 18.098ZM27.2354 18.14C26.4701 18.14 25.8448 17.9253 25.3594 17.496C24.8741 17.0667 24.5148 16.4647 24.2814 15.69C24.0574 14.9153 23.9454 14.01 23.9454 12.974C23.9454 11.938 24.0574 11.0373 24.2814 10.272C24.5148 9.50667 24.8741 8.914 25.3594 8.494C25.8448 8.074 26.4748 7.864 27.2494 7.864C27.9774 7.864 28.5841 8.074 29.0694 8.494C29.5548 8.914 29.9141 9.51133 30.1474 10.286C30.3901 11.0513 30.5114 11.952 30.5114 12.988C30.5114 14.024 30.3901 14.9293 30.1474 15.704C29.9048 16.4693 29.5408 17.0667 29.0554 17.496C28.5794 17.9253 27.9728 18.14 27.2354 18.14ZM27.2354 17.384C27.5714 17.384 27.8561 17.286 28.0894 17.09C28.3228 16.894 28.5094 16.6093 28.6494 16.236C28.7894 15.8533 28.8921 15.3913 28.9574 14.85C29.0228 14.2993 29.0554 13.6787 29.0554 12.988C29.0554 12.2973 29.0228 11.6813 28.9574 11.14C28.9014 10.5987 28.7988 10.1413 28.6494 9.768C28.5094 9.39467 28.3228 9.11 28.0894 8.914C27.8654 8.718 27.5854 8.62 27.2494 8.62C26.9041 8.62 26.6148 8.718 26.3814 8.914C26.1481 9.11 25.9568 9.39467 25.8074 9.768C25.6674 10.1413 25.5648 10.5987 25.4994 11.14C25.4341 11.6813 25.4014 12.2973 25.4014 12.988C25.4014 13.6787 25.4341 14.2993 25.4994 14.85C25.5648 15.3913 25.6674 15.8533 25.8074 16.236C25.9474 16.6093 26.1341 16.894 26.3674 17.09C26.6101 17.286 26.8994 17.384 27.2354 17.384ZM34.5937 18.14C33.9777 18.14 33.4737 18.07 33.0817 17.93C32.6897 17.7807 32.4004 17.5893 32.2137 17.356C32.0364 17.1133 31.9477 16.8567 31.9477 16.586C31.9477 16.306 32.0271 16.0867 32.1857 15.928C32.3537 15.7693 32.5684 15.69 32.8297 15.69C32.8297 16.0167 32.8997 16.3107 33.0397 16.572C33.1797 16.824 33.3804 17.0247 33.6417 17.174C33.9124 17.314 34.2344 17.384 34.6077 17.384C34.9811 17.384 35.3217 17.314 35.6297 17.174C35.9471 17.0247 36.2037 16.7867 36.3997 16.46C36.5957 16.1333 36.6937 15.69 36.6937 15.13C36.6937 14.738 36.5911 14.3973 36.3857 14.108C36.1804 13.8093 35.8864 13.5807 35.5037 13.422C35.1304 13.2633 34.6824 13.184 34.1597 13.184H33.7117V12.47H34.1597C34.5704 12.47 34.9391 12.3813 35.2657 12.204C35.6017 12.0267 35.8677 11.7747 36.0637 11.448C36.2597 11.1213 36.3577 10.7387 36.3577 10.3C36.3577 9.74933 36.2411 9.32467 36.0077 9.026C35.7837 8.718 35.4011 8.564 34.8597 8.564C34.4397 8.564 34.1177 8.662 33.8937 8.858C33.6697 9.054 33.5157 9.31067 33.4317 9.628C33.3571 9.936 33.3197 10.2767 33.3197 10.65C32.9837 10.65 32.6991 10.5893 32.4657 10.468C32.2324 10.3373 32.1157 10.0947 32.1157 9.74C32.1157 9.376 32.2184 9.054 32.4237 8.774C32.6291 8.494 32.9371 8.27467 33.3477 8.116C33.7584 7.948 34.2624 7.864 34.8597 7.864C35.7464 7.864 36.4557 8.06 36.9877 8.452C37.5291 8.83467 37.7997 9.38067 37.7997 10.09C37.7997 10.51 37.7017 10.8973 37.5057 11.252C37.3097 11.5973 37.0437 11.896 36.7077 12.148C36.3717 12.3907 35.9891 12.5633 35.5597 12.666C35.8211 12.694 36.1011 12.7547 36.3997 12.848C36.6984 12.932 36.9784 13.0673 37.2397 13.254C37.5104 13.4407 37.7297 13.688 37.8977 13.996C38.0657 14.2947 38.1497 14.6773 38.1497 15.144C38.1497 15.704 38.0424 16.18 37.8277 16.572C37.6131 16.9547 37.3284 17.2627 36.9737 17.496C36.6191 17.72 36.2317 17.8833 35.8117 17.986C35.4011 18.0887 34.9951 18.14 34.5937 18.14ZM42.2461 18L47.2441 8.004H48.1541L43.1701 18H42.2461ZM41.8821 14.08C41.0794 14.08 40.4961 13.7953 40.1321 13.226C39.7681 12.6473 39.5861 11.8913 39.5861 10.958C39.5861 10.0153 39.7681 9.264 40.1321 8.704C40.4961 8.144 41.0841 7.864 41.8961 7.864C42.6614 7.864 43.2307 8.144 43.6041 8.704C43.9867 9.264 44.1781 10.0153 44.1781 10.958C44.1781 11.5833 44.0941 12.1293 43.9261 12.596C43.7581 13.0627 43.5014 13.4267 43.1561 13.688C42.8201 13.9493 42.3954 14.08 41.8821 14.08ZM41.8821 13.506C42.1434 13.506 42.3441 13.408 42.4841 13.212C42.6334 13.0067 42.7407 12.7127 42.8061 12.33C42.8714 11.9473 42.9041 11.49 42.9041 10.958C42.9041 10.426 42.8714 9.97333 42.8061 9.6C42.7407 9.22667 42.6334 8.942 42.4841 8.746C42.3441 8.55 42.1481 8.452 41.8961 8.452C41.6441 8.452 41.4387 8.55 41.2801 8.746C41.1307 8.942 41.0187 9.22667 40.9441 9.6C40.8787 9.97333 40.8461 10.426 40.8461 10.958C40.8461 11.49 40.8787 11.9473 40.9441 12.33C41.0187 12.7127 41.1307 13.0067 41.2801 13.212C41.4294 13.408 41.6301 13.506 41.8821 13.506ZM48.5741 18.14C47.7714 18.14 47.1881 17.8553 46.8241 17.286C46.4601 16.7073 46.2781 15.9513 46.2781 15.018C46.2781 14.0753 46.4601 13.324 46.8241 12.764C47.1881 12.204 47.7761 11.924 48.5881 11.924C49.3534 11.924 49.9227 12.204 50.2961 12.764C50.6787 13.324 50.8701 14.0753 50.8701 15.018C50.8701 15.6433 50.7861 16.1893 50.6181 16.656C50.4501 17.1227 50.1934 17.4867 49.8481 17.748C49.5121 18.0093 49.0874 18.14 48.5741 18.14ZM48.5741 17.566C48.8354 17.566 49.0361 17.468 49.1761 17.272C49.3254 17.0667 49.4327 16.7727 49.4981 16.39C49.5634 16.0073 49.5961 15.55 49.5961 15.018C49.5961 14.486 49.5634 14.0333 49.4981 13.66C49.4327 13.2867 49.3254 13.002 49.1761 12.806C49.0361 12.61 48.8401 12.512 48.5881 12.512C48.3361 12.512 48.1307 12.61 47.9721 12.806C47.8227 13.002 47.7107 13.2867 47.6361 13.66C47.5707 14.0333 47.5381 14.486 47.5381 15.018C47.5381 15.55 47.5707 16.0073 47.6361 16.39C47.7107 16.7727 47.8227 17.0667 47.9721 17.272C48.1214 17.468 48.3221 17.566 48.5741 17.566Z" fill="#FFD600"/>
</svg>
